<?xml version="1.0" standalone="no"?>
<!DOCTYPE svg PUBLIC "-//W3C//DTD SVG 20010904//EN" "http://www.w3.org/TR/2001/REC-SVG-20010904/DTD/svg10.dtd">
<svg version="1.0" xmlns="http://www.w3.org/2000/svg"
    width="119.000000pt" height="110.000000pt" viewBox="0 0 119.000000 110.000000"
    preserveAspectRatio="xMidYMid meet">

    <g transform="translate(0.000000,110.000000) scale(0.100000,-0.100000)"
        fill="#000000" stroke="none">
        <path
            d="M455 1022 c-147 -51 -267 -173 -325 -332 -36 -96 -40 -276 -10 -391
12 -46 26 -88 32 -94 8 -7 9 -5 6 5 -41 117 -50 177 -45 300 5 138 19 187 83
289 46 72 68 95 129 140 75 55 134 80 211 90 66 8 67 9 19 9 -27 1 -73 -6
-100 -16z" />
        <path
            d="M685 1030 c65 -7 110 -17 160 -35 l20 -7 -20 14 c-27 21 -114 38
-178 37 -50 -2 -49 -2 18 -9z" />
        <path
            d="M925 1001 c-3 -10 -3 -25 0 -34 5 -11 -2 -17 -25 -22 -47 -10 -31
-29 36 -40 32 -6 71 -17 87 -25 40 -20 59 1 29 33 -12 13 -22 35 -22 50 0 28
-24 38 -34 15 -3 -9 -13 -4 -28 15 -28 32 -35 33 -43 8z m125 -113 c0 -6 -11
-3 -25 6 -13 9 -39 16 -58 16 -18 0 -42 7 -53 15 -18 14 -17 14 15 15 32 0 33
1 18 18 -10 10 -17 24 -17 31 0 7 27 -10 60 -39 33 -29 60 -57 60 -62z" />
        <path
            d="M538 924 c-122 -29 -241 -127 -297 -243 -24 -51 -26 -66 -26 -181 0
-122 1 -127 33 -188 65 -125 159 -191 300 -213 285 -43 494 128 495 406 1 87
-28 194 -67 250 -57 83 -175 158 -266 169 -43 6 -42 5 15 -12 198 -60 305
-201 305 -401 0 -217 -123 -366 -329 -401 -91 -15 -201 0 -275 37 -67 34 -140
110 -173 180 -25 53 -27 69 -28 178 0 118 0 121 35 184 42 77 117 154 184 188
28 14 89 34 136 44 51 10 71 18 50 17 -19 0 -61 -6 -92 -14z" />
        <path
            d="M516 854 c-45 -16 -106 -52 -106 -63 0 -9 54 -41 70 -41 6 0 25 15
43 34 33 36 87 58 87 37 0 -6 -7 -14 -15 -17 -8 -4 -15 -12 -15 -19 0 -7 7
-18 15 -25 19 -16 19 -37 0 -57 -14 -14 -14 -17 2 -35 10 -11 41 -31 70 -43
42 -19 57 -33 82 -77 36 -63 37 -76 11 -153 -13 -37 -17 -62 -11 -68 13 -13
125 73 130 98 2 11 17 39 33 62 35 47 32 69 -13 121 -31 35 -33 40 -21 59 9
15 25 5 41 -24 6 -13 16 -23 20 -23 18 0 20 32 5 63 -34 67 -84 116 -156 151
-64 33 -78 36 -152 35 -44 0 -98 -7 -120 -15z" />
        <path
            d="M293 513 c-20 -7 -15 -76 8 -139 29 -77 75 -125 169 -174 80 -41 80
-41 110 -23 52 30 37 54 -47 78 -15 4 -29 25 -48 74 -14 38 -41 86 -59 107
-18 21 -38 49 -45 62 -9 16 -20 22 -44 21 -18 0 -38 -3 -44 -6z" />
        <path
            d="M934 432 c-13 -9 -26 -57 -18 -65 4 -4 15 -2 25 3 12 7 20 7 24 0 10
-16 25 -1 25 24 0 36 -29 56 -56 38z" />
        <path d="M848 324 c-28 -14 -35 -28 -20 -37 10 -7 55 30 50 42 -1 5 -15 3 -30
-5z" />
        <path d="M177 134 c-8 -8 1 -24 14 -24 5 0 9 7 9 15 0 15 -12 20 -23 9z" />
    </g>
</svg>