<?xml version="1.0" standalone="no"?>
<!DOCTYPE svg PUBLIC "-//W3C//DTD SVG 20010904//EN" "http://www.w3.org/TR/2001/REC-SVG-20010904/DTD/svg10.dtd">
<svg version="1.0" xmlns="http://www.w3.org/2000/svg"
    width="124.000000pt" height="58.000000pt" viewBox="0 0 124.000000 58.000000"
    preserveAspectRatio="xMidYMid meet">

    <g transform="translate(0.000000,58.000000) scale(0.100000,-0.100000)"
        fill="#000000" stroke="none">
        <path
            d="M44 477 c-2 -7 -3 -102 -2 -212 l3 -200 35 0 35 0 3 133 c1 72 6 132
10 132 4 0 49 -61 100 -136 94 -135 94 -135 130 -132 l37 3 0 210 0 210 -35 0
-35 0 -3 -132 c-1 -73 -6 -133 -10 -133 -4 0 -36 43 -72 96 -121 178 -118 174
-156 174 -19 0 -37 -6 -40 -13z" />
        <path
            d="M512 278 l3 -213 143 -3 142 -3 0 24 c0 40 -18 47 -117 47 l-94 0 3
58 3 57 72 3 71 3 -7 27 c-7 26 -11 27 -75 30 l-67 3 3 57 3 56 82 1 c45 0 85
3 88 7 4 4 5 19 1 33 l-6 25 -125 0 -125 0 2 -212z" />
        <path
            d="M850 480 c-17 -11 -21 -4 63 -119 67 -92 69 -78 -27 -212 -30 -42
-52 -79 -49 -83 4 -3 19 -6 34 -6 28 0 51 24 109 112 14 21 30 38 35 38 6 0
31 -34 57 -75 44 -70 50 -75 83 -75 19 0 35 4 35 10 0 5 -27 51 -60 101 -33
50 -60 97 -60 103 0 6 29 54 65 106 36 52 65 98 65 103 0 4 -15 7 -34 7 -32 0
-39 -6 -87 -75 -28 -41 -55 -75 -59 -75 -4 0 -31 34 -59 75 -53 76 -74 89
-111 65z" />
    </g>
</svg>