<?xml version="1.0" standalone="no"?>
<!DOCTYPE svg PUBLIC "-//W3C//DTD SVG 20010904//EN" "http://www.w3.org/TR/2001/REC-SVG-20010904/DTD/svg10.dtd">
<svg version="1.0" xmlns="http://www.w3.org/2000/svg"
    width="235.000000pt" height="70.000000pt" viewBox="0 0 235.000000 70.000000"
    preserveAspectRatio="xMidYMid meet">

    <g transform="translate(0.000000,70.000000) scale(0.100000,-0.100000)"
        fill="#000000" stroke="none">
        <path
            d="M1248 543 c-10 -2 -18 -8 -18 -11 0 -7 35 -100 116 -305 l38 -98 34
3 c36 3 35 0 167 346 l24 62 -37 0 -37 0 -49 -138 c-27 -75 -55 -143 -61 -151
-11 -11 -17 -2 -34 45 -97 264 -95 260 -143 247z" />
        <path
            d="M40 515 c0 -24 2 -25 65 -25 l65 0 0 -180 0 -180 40 0 40 0 0 180 0
180 71 0 c67 0 70 1 67 23 -3 22 -5 22 -175 25 l-173 2 0 -25z" />
        <path
            d="M460 335 l0 -205 35 0 34 0 3 78 c3 72 4 77 27 80 48 7 65 -6 105
-83 39 -73 40 -75 78 -75 21 0 38 2 38 4 0 2 -20 39 -45 80 -25 42 -45 79 -45
82 0 4 14 22 30 41 24 27 30 43 30 79 0 59 -12 79 -60 104 -31 16 -59 20 -135
20 l-95 0 0 -205z m163 143 c46 -11 64 -46 46 -90 -13 -32 -37 -41 -95 -36
l-39 3 -3 53 c-4 78 12 90 91 70z" />
        <path
            d="M957 503 c-14 -32 -47 -115 -138 -351 -8 -22 -7 -23 28 -20 34 3 39
7 54 48 l17 45 81 3 81 3 24 -54 c22 -51 25 -54 55 -49 17 2 31 8 31 12 0 4
-34 95 -75 201 -41 106 -75 194 -75 196 0 2 -15 3 -33 3 -30 0 -36 -5 -50 -37z
m79 -142 c13 -35 21 -67 18 -72 -8 -14 -104 -11 -104 4 0 25 44 137 53 134 5
-1 20 -31 33 -66z" />
        <path
            d="M1680 335 l0 -205 146 0 c129 0 145 2 140 16 -3 9 -6 20 -6 24 0 5
-46 11 -102 12 l-103 3 0 60 0 60 73 3 c60 2 72 6 72 20 0 30 -14 37 -65 36
-76 -1 -87 8 -83 69 l3 52 88 3 c85 3 87 3 87 27 l0 25 -125 0 -125 0 0 -205z" />
        <path
            d="M2040 335 l0 -205 136 0 c135 0 135 0 132 23 -3 21 -8 22 -95 25
l-93 3 0 179 0 180 -40 0 -40 0 0 -205z" />
    </g>
</svg>